HIERARCHY
ROOT hip
{
  OFFSET 0 90.174 2.4664
  CHANNELS 6 Xposition Yposition Zposition Zrotation Xrotation Yrotation
  JOINT abdomen
  {
    OFFSET 0 -1.186 -1.5018
    CHANNELS 6 Xposition Yposition Zposition Zrotation Xrotation Yrotation
    JOINT abdomen2
    {
      OFFSET 0 9.964 0.2134
      CHANNELS 6 Xposition Yposition Zposition Zrotation Xrotation Yrotation
      JOINT chest
      {
        OFFSET 0 13.134 -3.2573
        CHANNELS 6 Xposition Yposition Zposition Zrotation Xrotation Yrotation
        JOINT neck
        {
          OFFSET 0 20.686 -1.6905
          CHANNELS 6 Xposition Yposition Zposition Zrotation Xrotation Yrotation
          JOINT head
          {
            OFFSET 0 7.238 -0.1237
            CHANNELS 6 Xposition Yposition Zposition Zrotation Xrotation Yrotation
            End Site
            {
              OFFSET 0 0 0
            }
          }
        }
        JOINT lCollar
        {
          OFFSET 1.7069 20.075 5.0056
          CHANNELS 6 Xposition Yposition Zposition Zrotation Xrotation Yrotation
          JOINT lShldr
          {
            OFFSET 13.6458 -0.047 -4.849
            CHANNELS 6 Xposition Yposition Zposition Zrotation Xrotation Yrotation
            JOINT lForeArm
            {
              OFFSET 28.3255 -0.9759 2.2888
              CHANNELS 6 Xposition Yposition Zposition Zrotation Xrotation Yrotation
              JOINT lHand
              {
                OFFSET 22.1583 -0.53 10.8316
                CHANNELS 6 Xposition Yposition Zposition Zrotation Xrotation Yrotation
                JOINT lThumb1
                {
                  OFFSET 0.786 0.112 2.5817
                  CHANNELS 6 Xposition Yposition Zposition Zrotation Xrotation Yrotation
                  JOINT lThumb2
                  {
                    OFFSET 0.3601 -0.878 4.2331
                    CHANNELS 6 Xposition Yposition Zposition Zrotation Xrotation Yrotation
                    JOINT lThumb2_End
                    {
                      OFFSET 1.8127 -1.216 2.2227
                      CHANNELS 6 Xposition Yposition Zposition Zrotation Xrotation Yrotation
                      End Site
                      {
                        OFFSET 0.0181 -0.0122 0.0222
                      }
                    }
                  }
                }
                JOINT lCarpal1
                {
                  OFFSET 0.9571 1.114 1.7695
                  CHANNELS 6 Xposition Yposition Zposition Zrotation Xrotation Yrotation
                  JOINT lIndex1
                  {
                    OFFSET 4.1246 0.487 4.1451
                    CHANNELS 6 Xposition Yposition Zposition Zrotation Xrotation Yrotation
                    JOINT lIndex2
                    {
                      OFFSET 3.4052 -1.454 2.7682
                      CHANNELS 6 Xposition Yposition Zposition Zrotation Xrotation Yrotation
                      JOINT lIndex2_End
                      {
                        OFFSET 1.4531 -1.795 1.2713
                        CHANNELS 6 Xposition Yposition Zposition Zrotation Xrotation Yrotation
                        End Site
                        {
                          OFFSET 0.0145 -0.0179 0.0127
                        }
                      }
                    }
                  }
                  JOINT lMid1
                  {
                    OFFSET 5.6954 0.21 2.1184
                    CHANNELS 6 Xposition Yposition Zposition Zrotation Xrotation Yrotation
                    JOINT lMid2
                    {
                      OFFSET 3.9766 -1.54 2.3863
                      CHANNELS 6 Xposition Yposition Zposition Zrotation Xrotation Yrotation
                      JOINT lMid2_End
                      {
                        OFFSET 1.4042 -1.926 1.125
                        CHANNELS 6 Xposition Yposition Zposition Zrotation Xrotation Yrotation
                        End Site
                        {
                          OFFSET 0.014 -0.0193 0.0113
                        }
                      }
                    }
                  }
                }
                JOINT lCarpal2
                {
                  OFFSET 2.0956 0.66 -0.3894
                  CHANNELS 6 Xposition Yposition Zposition Zrotation Xrotation Yrotation
                  JOINT lRing1
                  {
                    OFFSET 5.0395 -0.09 2.4971
                    CHANNELS 6 Xposition Yposition Zposition Zrotation Xrotation Yrotation
                    JOINT lRing2
                    {
                      OFFSET 3.7921 -1.552 1.4806
                      CHANNELS 6 Xposition Yposition Zposition Zrotation Xrotation Yrotation
                      JOINT lRing2_End
                      {
                        OFFSET 1.4655 -1.808 0.9609
                        CHANNELS 6 Xposition Yposition Zposition Zrotation Xrotation Yrotation
                        End Site
                        {
                          OFFSET 0.0147 -0.0181 0.0096
                        }
                      }
                    }
                  }
                  JOINT lPinky1
                  {
                    OFFSET 4.9141 -1.269 0.3591
                    CHANNELS 6 Xposition Yposition Zposition Zrotation Xrotation Yrotation
                    JOINT lPinky2
                    {
                      OFFSET 3.1477 -1.685 0.8462
                      CHANNELS 6 Xposition Yposition Zposition Zrotation Xrotation Yrotation
                      JOINT lPinky2_End
                      {
                        OFFSET 0.8055 -1.585 0.7955
                        CHANNELS 6 Xposition Yposition Zposition Zrotation Xrotation Yrotation
                        End Site
                        {
                          OFFSET 0.0081 -0.0158 0.008
                        }
                      }
                    }
                  }
                }
              }
            }
          }
        }
        JOINT rCollar
        {
          OFFSET -1.7069 20.075 5.0056
          CHANNELS 6 Xposition Yposition Zposition Zrotation Xrotation Yrotation
          JOINT rShldr
          {
            OFFSET -13.6458 -0.047 -4.849
            CHANNELS 6 Xposition Yposition Zposition Zrotation Xrotation Yrotation
            JOINT rForeArm
            {
              OFFSET -28.3255 -0.9759 2.2888
              CHANNELS 6 Xposition Yposition Zposition Zrotation Xrotation Yrotation
              JOINT rHand
              {
                OFFSET -22.1583 -0.53 10.8316
                CHANNELS 6 Xposition Yposition Zposition Zrotation Xrotation Yrotation
                JOINT rThumb1
                {
                  OFFSET -0.786 0.112 2.5817
                  CHANNELS 6 Xposition Yposition Zposition Zrotation Xrotation Yrotation
                  JOINT rThumb2
                  {
                    OFFSET -0.3601 -0.878 4.2331
                    CHANNELS 6 Xposition Yposition Zposition Zrotation Xrotation Yrotation
                    JOINT rThumb2_End
                    {
                      OFFSET -1.8127 -1.216 2.2227
                      CHANNELS 6 Xposition Yposition Zposition Zrotation Xrotation Yrotation
                      End Site
                      {
                        OFFSET -0.0181 -0.0122 0.0222
                      }
                    }
                  }
                }
                JOINT rCarpal1
                {
                  OFFSET -0.9571 1.114 1.7695
                  CHANNELS 6 Xposition Yposition Zposition Zrotation Xrotation Yrotation
                  JOINT rIndex1
                  {
                    OFFSET -4.1246 0.487 4.1451
                    CHANNELS 6 Xposition Yposition Zposition Zrotation Xrotation Yrotation
                    JOINT rIndex2
                    {
                      OFFSET -3.4052 -1.454 2.7682
                      CHANNELS 6 Xposition Yposition Zposition Zrotation Xrotation Yrotation
                      JOINT rIndex2_End
                      {
                        OFFSET -1.4531 -1.795 1.2713
                        CHANNELS 6 Xposition Yposition Zposition Zrotation Xrotation Yrotation
                        End Site
                        {
                          OFFSET -0.0145 -0.018 0.0127
                        }
                      }
                    }
                  }
                  JOINT rMid1
                  {
                    OFFSET -5.6954 0.21 2.1184
                    CHANNELS 6 Xposition Yposition Zposition Zrotation Xrotation Yrotation
                    JOINT rMid2
                    {
                      OFFSET -3.9766 -1.54 2.3863
                      CHANNELS 6 Xposition Yposition Zposition Zrotation Xrotation Yrotation
                      JOINT rMid2_End
                      {
                        OFFSET -1.4042 -1.926 1.125
                        CHANNELS 6 Xposition Yposition Zposition Zrotation Xrotation Yrotation
                        End Site
                        {
                          OFFSET -0.014 -0.0193 0.0113
                        }
                      }
                    }
                  }
                }
                JOINT rCarpal2
                {
                  OFFSET -2.0956 0.66 -0.3894
                  CHANNELS 6 Xposition Yposition Zposition Zrotation Xrotation Yrotation
                  JOINT rRing1
                  {
                    OFFSET -5.0395 -0.09 2.4971
                    CHANNELS 6 Xposition Yposition Zposition Zrotation Xrotation Yrotation
                    JOINT rRing2
                    {
                      OFFSET -3.7921 -1.552 1.4806
                      CHANNELS 6 Xposition Yposition Zposition Zrotation Xrotation Yrotation
                      JOINT rRing2_End
                      {
                        OFFSET -1.4655 -1.808 0.9609
                        CHANNELS 6 Xposition Yposition Zposition Zrotation Xrotation Yrotation
                        End Site
                        {
                          OFFSET -0.0147 -0.0181 0.0096
                        }
                      }
                    }
                  }
                  JOINT rPinky1
                  {
                    OFFSET -4.9141 -1.269 0.3592
                    CHANNELS 6 Xposition Yposition Zposition Zrotation Xrotation Yrotation
                    JOINT rPinky2
                    {
                      OFFSET -3.1477 -1.685 0.8462
                      CHANNELS 6 Xposition Yposition Zposition Zrotation Xrotation Yrotation
                      JOINT rPinky2_End
                      {
                        OFFSET -0.8055 -1.585 0.7955
                        CHANNELS 6 Xposition Yposition Zposition Zrotation Xrotation Yrotation
                        End Site
                        {
                          OFFSET -0.0081 -0.0158 0.008
                        }
                      }
                    }
                  }
                }
              }
            }
          }
        }
      }
    }
  }
  JOINT lThigh
  {
    OFFSET 8.367 -8.2066 0.5982
    CHANNELS 6 Xposition Yposition Zposition Zrotation Xrotation Yrotation
    JOINT lShin
    {
      OFFSET 2.1923 -43.463 -0.4932
      CHANNELS 6 Xposition Yposition Zposition Zrotation Xrotation Yrotation
      JOINT lFoot
      {
        OFFSET 0.7333 -45.8593 -2.6451
        CHANNELS 6 Xposition Yposition Zposition Zrotation Xrotation Yrotation
        End Site
        {
          OFFSET 2.6618 -4.2699 12.3931
        }
      }
    }
  }
  JOINT rThigh
  {
    OFFSET -8.367 -8.2066 0.5982
    CHANNELS 6 Xposition Yposition Zposition Zrotation Xrotation Yrotation
    JOINT rShin
    {
      OFFSET -2.1923 -43.463 -0.4931
      CHANNELS 6 Xposition Yposition Zposition Zrotation Xrotation Yrotation
      JOINT rFoot
      {
        OFFSET -0.7333 -45.8593 -2.6451
        CHANNELS 6 Xposition Yposition Zposition Zrotation Xrotation Yrotation
        End Site
        {
          OFFSET -2.6618 -4.2699 12.3931
        }
      }
    }
  }
}
MOTION
Frames:	4
Frame Time:	0.0333333
1.17894 32.3607 -3.55283 -6.64912e-015 2.99883 180 0 -1.186 -1.5018 -0.308259 -3.65127 -0.546403 0 9.964 0.2134 -0.653473 -7.29939 -1.11594 -2.22045e-016 13.134 -3.2573 -0.653473 -7.29939 -1.11594 -2.22045e-016 20.686 -1.6905 -8.06332e-006 -8.51231 -7.91614e-006 -2.22045e-016 7.238 -0.1237 3.51495e-007 -9.12135 -2.12165e-007 1.7069 20.075 5.0056 -15.6705 1.80971 -16.4914 13.6458 -0.047 -4.849 -133.02 -73.9805 -62.3663 28.3255 -0.9759 2.2888 15.6359 75.0823 2.99016 22.1583 -0.53 10.8316 10.7673 -7.10861 23.6626 0.786 0.112 2.5817 -2.52208e-015 3.97569e-016 -0 0.3601 -0.878 4.2331 -2.51587e-015 0 -0 1.8127 -1.216 2.2227 -2.50966e-015 -1.98785e-016 -0 0.9571 1.114 1.7695 -9.25591e-016 5.96354e-016 1.98785e-016 4.1246 0.487 4.1451 -2.35436e-015 1.98785e-016 6.16232e-015 3.4052 -1.454 2.7682 -2.36678e-015 -5.96354e-016 -0 1.4531 -1.795 1.2713 -2.36678e-015 0 -0 5.6954 0.21 2.1184 -2.35436e-015 1.98785e-016 6.16232e-015 3.9766 -1.54 2.3863 -2.36678e-015 -5.96354e-016 -0 1.4042 -1.926 1.125 -2.36678e-015 0 -0 2.0956 0.66 -0.3894 -9.25591e-016 5.96354e-016 1.98785e-016 5.0395 -0.09 2.4971 -2.35436e-015 1.98785e-016 6.16232e-015 3.7921 -1.552 1.4806 -2.36678e-015 -5.96354e-016 -0 1.4655 -1.808 0.9609 -2.36678e-015 0 -0 4.9141 -1.269 0.3591 -2.35436e-015 1.98785e-016 6.16232e-015 3.1477 -1.685 0.8462 -2.36678e-015 -5.96354e-016 -0 0.8055 -1.585 0.7955 -2.36678e-015 0 -0 -1.7069 20.075 5.0056 -4.29467 -7.67126 -22.9951 -13.6458 -0.047 -4.849 -24.4417 -62.0673 -88.1103 -28.3255 -0.9759 2.2888 -16.4925 75.9089 -1.53591 -22.1583 -0.53 10.8316 -47.3883 -4.12245 -3.67487 -0.786 0.112 2.5817 8.5801e-007 -1.43627e-006 3.37594e-007 -0.3601 -0.878 4.2331 9.43901e-007 -3.70403e-007 3.71767e-006 -1.8127 -1.216 2.2227 1.28701e-006 -2.1544e-006 5.06391e-007 -0.9571 1.114 1.7695 -2.20695e-031 3.97569e-015 3.18055e-015 -4.1246 0.487 4.1451 8.5801e-007 -1.43627e-006 3.37594e-007 -3.4052 -1.454 2.7682 9.43901e-007 -3.70403e-007 3.71767e-006 -1.4531 -1.795 1.2713 1.28701e-006 -2.1544e-006 5.06391e-007 -5.6954 0.21 2.1184 8.5801e-007 -1.43627e-006 3.37594e-007 -3.9766 -1.54 2.3863 9.43901e-007 -3.70403e-007 3.71767e-006 -1.4042 -1.926 1.125 1.28701e-006 -2.1544e-006 5.06391e-007 -2.0956 0.66 -0.3894 -2.20695e-031 3.97569e-015 3.18055e-015 -5.0395 -0.09 2.4971 8.5801e-007 -1.43627e-006 3.37594e-007 -3.7921 -1.552 1.4806 9.43901e-007 -3.70403e-007 3.71767e-006 -1.4655 -1.808 0.9609 1.28701e-006 -2.1544e-006 5.06391e-007 -4.9141 -1.269 0.3592 8.5801e-007 -1.43627e-006 3.37594e-007 -3.1477 -1.685 0.8462 9.43901e-007 -3.70403e-007 3.71767e-006 -0.8055 -1.585 0.7955 1.28701e-006 -2.1544e-006 5.06391e-007 8.367 -8.2066 0.5982 39.8822 -18.9955 -45.6325 2.1923 -43.463 -0.4932 -117.691 43.3624 150.58 0.7333 -45.8593 -2.6451 31.4314 43.8026 -70.7467 -8.367 -8.2066 0.5982 -37.7172 -19.1374 44.8933 -2.1923 -43.463 -0.4931 120.242 42.7818 -152.616 -0.7333 -45.8593 -2.6451 -28.7329 43.5654 67.4895 
1.17855 32.5025 -3.62899 -6.64912e-015 2.99883 180 0 -1.186 -1.5018 -0.308259 -3.65127 -0.546403 0 9.964 0.2134 -0.653473 -7.29939 -1.11594 0 13.134 -3.2573 -0.653473 -7.29939 -1.11594 -2.22045e-016 20.686 -1.6905 1.78082e-006 -7.30734 -5.67857e-006 0 7.238 -0.1237 -1.37506e-007 -9.12135 -2.76196e-007 1.7069 20.075 5.0056 -15.5438 1.69093 -16.5197 13.6458 -0.047 -4.849 -133.02 -73.9805 -62.3663 28.3255 -0.9759 2.2888 15.7769 75.0788 2.99074 22.1583 -0.53 10.8316 10.4072 -6.96888 24.2046 0.786 0.112 2.5817 -2.2239e-015 -3.97569e-016 5.96354e-016 0.3601 -0.878 4.2331 -6.1499e-016 0 3.97569e-016 1.8127 -1.216 2.2227 -5.90142e-016 0 -0 0.9571 1.114 1.7695 -2.23012e-015 -1.98785e-016 3.97569e-016 4.1246 0.487 4.1451 -4.78326e-016 1.98785e-016 6.75868e-015 3.4052 -1.454 2.7682 -2.04997e-015 0 1.98785e-016 1.4531 -1.795 1.2713 -5.2181e-015 0 1.98785e-016 5.6954 0.21 2.1184 -4.78326e-016 1.98785e-016 6.75868e-015 3.9766 -1.54 2.3863 -2.04997e-015 0 1.98785e-016 1.4042 -1.926 1.125 -5.2181e-015 0 1.98785e-016 2.0956 0.66 -0.3894 -2.23012e-015 -1.98785e-016 3.97569e-016 5.0395 -0.09 2.4971 -4.78326e-016 1.98785e-016 6.75868e-015 3.7921 -1.552 1.4806 -2.04997e-015 0 1.98785e-016 1.4655 -1.808 0.9609 -5.2181e-015 0 1.98785e-016 4.9141 -1.269 0.3591 -4.78326e-016 1.98785e-016 6.75868e-015 3.1477 -1.685 0.8462 -2.04997e-015 0 1.98785e-016 0.8055 -1.585 0.7955 -5.2181e-015 0 1.98785e-016 -1.7069 20.075 5.0056 -3.83984 -7.77412 -23.1796 -13.6458 -0.047 -4.849 -24.458 -62.1797 -87.9383 -28.3255 -0.9759 2.2888 -16.3525 75.8544 -1.63688 -22.1583 -0.53 10.8316 -47.3883 -4.12245 -3.67487 -0.786 0.112 2.5817 -4.77083e-015 0 -3.18055e-015 -0.3601 -0.878 4.2331 -4.41391e-031 7.95139e-015 3.18055e-015 -1.8127 -1.216 2.2227 -3.08973e-031 5.56597e-015 3.18055e-015 -0.9571 1.114 1.7695 -4.77083e-015 -1.59028e-015 -3.18055e-015 -4.1246 0.487 4.1451 -1.32417e-030 7.95139e-015 9.54166e-015 -3.4052 -1.454 2.7682 1.59028e-015 6.36111e-015 -0 -1.4531 -1.795 1.2713 3.18055e-015 3.18055e-015 -0 -5.6954 0.21 2.1184 -1.32417e-030 7.95139e-015 9.54166e-015 -3.9766 -1.54 2.3863 1.59028e-015 6.36111e-015 -0 -1.4042 -1.926 1.125 3.18055e-015 3.18055e-015 -0 -2.0956 0.66 -0.3894 -4.77083e-015 -1.59028e-015 -3.18055e-015 -5.0395 -0.09 2.4971 -1.32417e-030 7.95139e-015 9.54166e-015 -3.7921 -1.552 1.4806 1.59028e-015 6.36111e-015 -0 -1.4655 -1.808 0.9609 3.18055e-015 3.18055e-015 -0 -4.9141 -1.269 0.3592 -1.32417e-030 7.95139e-015 9.54166e-015 -3.1477 -1.685 0.8462 1.59028e-015 6.36111e-015 -0 -0.8055 -1.585 0.7955 3.18055e-015 3.18055e-015 -0 8.367 -8.2066 0.5982 39.6608 -18.9289 -45.7017 2.1923 -43.463 -0.4932 -117.431 43.4062 150.399 0.7333 -45.8593 -2.6451 31.3002 44.0124 -70.5913 -8.367 -8.2066 0.5982 -37.5059 -19.063 44.9591 -2.1923 -43.463 -0.4931 119.977 42.8323 -152.432 -0.7333 -45.8593 -2.6451 -28.6067 43.7625 67.3374 
1.17815 32.6443 -3.70516 -6.64912e-015 2.99883 180 0 -1.186 -1.5018 -0.308259 -3.65127 -0.546403 -2.22045e-016 9.964 0.2134 -0.653473 -7.29939 -1.11594 -2.22045e-016 13.134 -3.2573 -0.653473 -7.29939 -1.11594 0 20.686 -1.6905 1.43331e-005 -6.10025 6.86527e-007 0 7.238 -0.1237 3.09418e-007 -9.12134 3.3639e-007 1.7069 20.075 5.0056 -15.4171 1.57208 -16.5478 13.6458 -0.047 -4.849 -133.02 -73.9805 -62.3663 28.3255 -0.9759 2.2888 15.9171 75.0749 2.99211 22.1583 -0.53 10.8316 10.0459 -6.83254 24.7472 0.786 0.112 2.5817 3.93568e-009 5.26928e-007 -6.71502e-007 0.3601 -0.878 4.2331 2.25389e-008 1.19843e-006 -1.44574e-007 1.8127 -1.216 2.2227 1.21756e-015 0 -3.97569e-016 0.9571 1.114 1.7695 1.31695e-015 -5.96354e-016 -3.97569e-016 4.1246 0.487 4.1451 3.93568e-009 5.26928e-007 -6.71502e-007 3.4052 -1.454 2.7682 2.25389e-008 1.19843e-006 -1.44574e-007 1.4531 -1.795 1.2713 -8.26199e-016 1.98785e-016 -7.95139e-016 5.6954 0.21 2.1184 3.93568e-009 5.26928e-007 -6.71502e-007 3.9766 -1.54 2.3863 2.25389e-008 1.19843e-006 -1.44574e-007 1.4042 -1.926 1.125 -8.26199e-016 1.98785e-016 -7.95139e-016 2.0956 0.66 -0.3894 1.31695e-015 -5.96354e-016 -3.97569e-016 5.0395 -0.09 2.4971 3.93568e-009 5.26928e-007 -6.71502e-007 3.7921 -1.552 1.4806 2.25389e-008 1.19843e-006 -1.44574e-007 1.4655 -1.808 0.9609 -8.26199e-016 1.98785e-016 -7.95139e-016 4.9141 -1.269 0.3591 3.93568e-009 5.26928e-007 -6.71502e-007 3.1477 -1.685 0.8462 2.25389e-008 1.19843e-006 -1.44574e-007 0.8055 -1.585 0.7955 -8.26199e-016 1.98785e-016 -7.95139e-016 -1.7069 20.075 5.0056 -3.38527 -7.87842 -23.3632 -13.6458 -0.047 -4.849 -24.4736 -62.2922 -87.7657 -28.3255 -0.9759 2.2888 -16.2129 75.7993 -1.73827 -22.1583 -0.53 10.8316 -47.3883 -4.12246 -3.67487 -0.786 0.112 2.5817 -4.94613e-006 -1.49715e-006 -1.02651e-007 -0.3601 -0.878 4.2331 2.01553e-006 1.40408e-006 -6.10218e-006 -1.8127 -1.216 2.2227 -3.51183e-006 -6.39527e-007 -1.55115e-007 -0.9571 1.114 1.7695 -8.82781e-032 1.59028e-015 3.18055e-015 -4.1246 0.487 4.1451 -4.94613e-006 -1.49715e-006 -1.02651e-007 -3.4052 -1.454 2.7682 2.01553e-006 1.40408e-006 -6.10218e-006 -1.4531 -1.795 1.2713 -3.51183e-006 -6.39527e-007 -1.55115e-007 -5.6954 0.21 2.1184 -4.94613e-006 -1.49715e-006 -1.02651e-007 -3.9766 -1.54 2.3863 2.01553e-006 1.40408e-006 -6.10218e-006 -1.4042 -1.926 1.125 -3.51183e-006 -6.39527e-007 -1.55115e-007 -2.0956 0.66 -0.3894 -8.82781e-032 1.59028e-015 3.18055e-015 -5.0395 -0.09 2.4971 -4.94613e-006 -1.49715e-006 -1.02651e-007 -3.7921 -1.552 1.4806 2.01553e-006 1.40408e-006 -6.10218e-006 -1.4655 -1.808 0.9609 -3.51183e-006 -6.39527e-007 -1.55115e-007 -4.9141 -1.269 0.3592 -4.94613e-006 -1.49715e-006 -1.02651e-007 -3.1477 -1.685 0.8462 2.01553e-006 1.40408e-006 -6.10218e-006 -0.8055 -1.585 0.7955 -3.51183e-006 -6.39527e-007 -1.55115e-007 8.367 -8.2066 0.5982 39.4397 -18.8622 -45.7703 2.1923 -43.463 -0.4932 -117.171 43.4496 150.218 0.7333 -45.8593 -2.6451 31.1678 44.222 -70.4346 -8.367 -8.2066 0.5982 -37.2948 -18.9888 45.0246 -2.1923 -43.463 -0.4931 119.713 42.8823 -152.247 -0.7333 -45.8593 -2.6451 -28.4793 43.9595 67.1843 
1.17775 32.7861 -3.78132 -6.64912e-015 2.99883 180 0 -1.186 -1.5018 -0.308259 -3.65127 -0.546403 2.22045e-016 9.964 0.2134 -0.653473 -7.29939 -1.11594 0 13.134 -3.2573 -0.653473 -7.29939 -1.11594 -4.44089e-016 20.686 -1.6905 -2.13284e-005 -4.89118 -5.18858e-006 0 7.238 -0.1237 -2.37789e-007 -9.12134 -5.60859e-007 1.7069 20.075 5.0056 -15.2905 1.45318 -16.5756 13.6458 -0.047 -4.849 -133.02 -73.9805 -62.3662 28.3255 -0.9759 2.2888 16.0568 75.0708 2.99405 22.1583 -0.53 10.8316 9.68353 -6.69966 25.2904 0.786 0.112 2.5817 -1.40392e-015 0 3.97569e-016 0.3601 -0.878 4.2331 -1.41013e-015 0 -0 1.8127 -1.216 2.2227 -1.41013e-015 0 -0 0.9571 1.114 1.7695 -2.99419e-015 -1.98785e-016 3.97569e-016 4.1246 0.487 4.1451 -1.28589e-015 -1.98785e-016 6.36111e-015 3.4052 -1.454 2.7682 -1.26725e-015 -1.98785e-016 -3.97569e-016 1.4531 -1.795 1.2713 -1.28589e-015 -1.98785e-016 -3.97569e-016 5.6954 0.21 2.1184 -1.28589e-015 -1.98785e-016 6.36111e-015 3.9766 -1.54 2.3863 -1.26725e-015 -1.98785e-016 -3.97569e-016 1.4042 -1.926 1.125 -1.28589e-015 -1.98785e-016 -3.97569e-016 2.0956 0.66 -0.3894 -2.99419e-015 -1.98785e-016 3.97569e-016 5.0395 -0.09 2.4971 -1.28589e-015 -1.98785e-016 6.36111e-015 3.7921 -1.552 1.4806 -1.26725e-015 -1.98785e-016 -3.97569e-016 1.4655 -1.808 0.9609 -1.28589e-015 -1.98785e-016 -3.97569e-016 4.9141 -1.269 0.3591 -1.28589e-015 -1.98785e-016 6.36111e-015 3.1477 -1.685 0.8462 -1.26725e-015 -1.98785e-016 -3.97569e-016 0.8055 -1.585 0.7955 -1.28589e-015 -1.98785e-016 -3.97569e-016 -1.7069 20.075 5.0056 -2.93098 -7.98413 -23.5461 -13.6458 -0.047 -4.849 -24.4885 -62.4047 -87.5926 -28.3255 -0.9759 2.2888 -16.0742 75.7437 -1.83967 -22.1583 -0.53 10.8316 -47.3883 -4.12245 -3.67487 -0.786 0.112 2.5817 -5.05013e-006 -1.31824e-006 -1.49265e-007 -0.3601 -0.878 4.2331 1.21892e-006 1.21578e-006 -1.40527e-007 -1.8127 -1.216 2.2227 -5.22457e-006 2.22662e-006 -8.60636e-007 -0.9571 1.114 1.7695 -3.18055e-015 0 3.18055e-015 -4.1246 0.487 4.1451 -5.05013e-006 -1.31824e-006 -1.49265e-007 -3.4052 -1.454 2.7682 1.21892e-006 1.21578e-006 -1.40527e-007 -1.4531 -1.795 1.2713 -5.22457e-006 2.22662e-006 -8.60636e-007 -5.6954 0.21 2.1184 -5.05013e-006 -1.31824e-006 -1.49265e-007 -3.9766 -1.54 2.3863 1.21892e-006 1.21578e-006 -1.40527e-007 -1.4042 -1.926 1.125 -5.22457e-006 2.22662e-006 -8.60636e-007 -2.0956 0.66 -0.3894 -3.18055e-015 0 3.18055e-015 -5.0395 -0.09 2.4971 -5.05013e-006 -1.31824e-006 -1.49265e-007 -3.7921 -1.552 1.4806 1.21892e-006 1.21578e-006 -1.40527e-007 -1.4655 -1.808 0.9609 -5.22457e-006 2.22662e-006 -8.60636e-007 -4.9141 -1.269 0.3592 -5.05013e-006 -1.31824e-006 -1.49265e-007 -3.1477 -1.685 0.8462 1.21892e-006 1.21578e-006 -1.40527e-007 -0.8055 -1.585 0.7955 -5.22457e-006 2.22662e-006 -8.60636e-007 8.367 -8.2066 0.5982 39.2187 -18.7956 -45.8386 2.1923 -43.463 -0.4932 -116.91 43.4924 150.036 0.7333 -45.8593 -2.6451 31.0341 44.4315 -70.2769 -8.367 -8.2066 0.5982 -37.0839 -18.9144 45.0897 -2.1923 -43.463 -0.4931 119.447 42.9316 -152.061 -0.7333 -45.8593 -2.6451 -28.3509 44.1564 67.0302 
